<?xml version="1.0" encoding="UTF-8" standalone="no"?>
<!-- Created with Inkscape (http://www.inkscape.org/) -->

<svg
   width="169.3298mm"
   height="74.858849mm"
   viewBox="0 0 169.3298 74.858849"
   version="1.1"
   id="svg5"
   xml:space="preserve"
   inkscape:version="1.2.2 (b0a8486541, 2022-12-01)"
   sodipodi:docname="drawing.svg"
   xmlns:inkscape="http://www.inkscape.org/namespaces/inkscape"
   xmlns:sodipodi="http://sodipodi.sourceforge.net/DTD/sodipodi-0.dtd"
   xmlns="http://www.w3.org/2000/svg"
   xmlns:svg="http://www.w3.org/2000/svg"><sodipodi:namedview
     id="namedview7"
     pagecolor="#ffffff"
     bordercolor="#666666"
     borderopacity="1.0"
     inkscape:showpageshadow="2"
     inkscape:pageopacity="0.0"
     inkscape:pagecheckerboard="0"
     inkscape:deskcolor="#d1d1d1"
     inkscape:document-units="mm"
     showgrid="false"
     inkscape:zoom="0.97663909"
     inkscape:cx="184.30554"
     inkscape:cy="355.81209"
     inkscape:window-width="1920"
     inkscape:window-height="1005"
     inkscape:window-x="0"
     inkscape:window-y="25"
     inkscape:window-maximized="1"
     inkscape:current-layer="layer1" /><defs
     id="defs2" /><g
     inkscape:label="Layer 1"
     inkscape:groupmode="layer"
     id="layer1"
     transform="translate(-0.74450995)"><path
       style="fill:#000000;stroke-width:0.264583"
       d="m 28.80418,74.623213 c -0.271608,-0.16786 0.694788,-1.06905 1.146402,-1.06905 0.06821,0 0.75701,-0.38268 1.530662,-0.85041 0.773655,-0.46774 1.435638,-0.86384 1.471076,-0.88023 0.03543,-0.0164 -0.39782,-2.40191 -0.96279,-5.30115 -0.56497,-2.89923 -1.583184,-8.18836 -2.262695,-11.75362 -0.679514,-3.56526 -1.44516,-7.54036 -1.701435,-8.83355 l -0.46596,-2.35126 -2.606583,0.0526 c -3.299688,0.0666 -3.904742,0.43347 -4.10351,2.48847 l -0.132292,1.36772 h -1.058333 -1.058333 l -0.057,-1.32292 c -0.03967,-0.92067 -0.193653,-1.40336 -0.506423,-1.5875 -2.801908,-1.64954 -3.009132,-5.60929 -0.362598,-6.92873 1.07456,-0.53573 1.307935,-2.83478 0.888121,-8.74915 l -0.170195,-2.39772 -0.954284,-0.12759 c -0.524856,-0.0702 -1.671252,-0.33717 -2.547547,-0.59334 l -1.593267,-0.46575 -2.017481,0.44885 c -2.6057418,0.57972 -4.2184448,1.63192 -5.0316208,3.28285 l -0.612288,1.24308 0.06707,3.73986 c 0.0595,3.31747 0.01129,3.80874 -0.426801,4.34976 l -0.49387,0.60991 -0.35942,-0.6456 c -0.503478,-0.90436 -1.730455,-4.04433 -2.207596,-5.64949 -1.47015275,-4.94578 -1.47429495,-4.97239 -1.47032455,-9.44442 0.00536,-6.04065 1.07381455,-9.1186 2.44695055,-7.04908 0.487927,0.73537 1.659943,1.95346 2.781416,2.89074 1.551248,1.29648 5.9588508,2.06734 8.7906988,1.53743 0.800365,-0.14976 1.961224,-0.34477 2.579688,-0.43334 0.994509,-0.14243 1.124897,-0.24117 1.128092,-0.85424 0.0081,-1.56082 0.258952,-1.91759 1.287656,-1.83159 l 0.957689,0.0801 0.132292,1.65623 0.132292,1.65624 0.926041,0.46043 0.926042,0.46043 0.07968,1.38061 0.07968,1.38061 -1.005721,0.47337 -1.005721,0.47338 -0.07114,5.86041 -0.07114,5.86041 0.89951,0.55593 0.899511,0.55593 15.828773,-0.0682 15.828772,-0.0682 0.316341,-1.05833 c 0.572378,-1.91492 2.40792,-4.8948 3.015086,-4.8948 0.557805,0 6.474296,6.43563 6.401025,6.96268 -0.160502,1.15446 -0.121756,2.97639 0.07896,3.71302 l 0.205397,0.75383 -3.140575,3.14878 c -1.727317,1.73183 -3.27051,3.14878 -3.429318,3.14878 -0.699773,0 -2.401541,-2.7464 -3.308292,-5.33909 -0.369199,-1.05565 -1.206418,-1.4885 -1.77647,-0.91845 -0.187706,0.18771 -0.869837,3.0119 -1.515841,6.27598 -0.646006,3.26407 -1.29015,6.47046 -1.43143,7.12531 -0.34839,1.61479 -1.175493,5.6269 -1.854507,8.99583 -0.307964,1.52797 -0.686289,3.33912 -0.840718,4.02479 -0.352523,1.56519 -0.342665,1.57919 2.027867,2.88022 2.287905,1.25567 2.465046,1.44605 1.557477,1.67383 -0.929573,0.23331 -21.40932,0.13798 -21.796739,-0.10146 z m 83.48105,-6.49762 c -5.67843,-3.16011 -5.57915,-3.03809 -2.47212,-3.03809 1.75239,0 2.61651,-0.10353 2.76064,-0.33073 0.11539,-0.1819 0.99281,-2.05714 1.94982,-4.16719 0.95702,-2.11005 3.42948,-7.53684 5.49436,-12.05953 4.47605,-9.80384 4.32506,-8.882 1.43923,-8.78671 l -2.3151,0.0764 0.0534,0.66146 c 0.0294,0.3638 0.13139,1.04295 0.22669,1.50922 0.32675,1.5986 -1.34361,1.59254 -1.8906,-0.007 -0.19844,-0.58023 -0.52651,-0.91119 -1.05833,-1.06764 -3.36499,-0.98993 -4.55093,-3.91588 -2.55069,-6.29303 l 0.68397,-0.81286 -0.32768,-0.8316 c -0.18022,-0.45739 -0.81204,-2.20083 -1.40405,-3.87432 -1.27258,-3.59738 -1.7033,-4.50093 -2.14003,-4.48926 -7.69232,0.20557 -10.71512,5.12303 -7.34144,11.94301 1.32582,2.68019 1.62704,4.18792 0.83666,4.18792 -0.40456,0 -5.739731,-5.67556 -6.988701,-7.43458 -2.47737,-3.48909 -4.40306,-8.1673 -4.47777,-10.8782 -0.0546,-1.98234 -0.0982,-1.96669 2.30102,-0.82732 3.98082,1.89048 9.094981,0.96047 12.909451,-2.34759 l 1.00274,-0.8696 -0.44219,-1.28582 c -0.48352,-1.40598 -0.31754,-1.74449 0.85949,-1.75284 0.46103,-0.003 0.65863,0.27556 1.0284,1.45116 l 0.45772,1.4552 h 1.54591 1.5459 l 0.53454,1.0478 c 0.7337,1.43817 0.68831,1.66841 -0.52379,2.65637 -1.39943,1.14066 -1.44514,0.69093 0.65884,6.48229 0.52867,1.45521 1.14368,3.15185 1.36669,3.77032 0.31475,0.87288 0.53964,1.12447 1.00513,1.12447 0.32982,0 1.03986,0.29873 1.57788,0.66384 l 0.97821,0.66383 13.65445,-0.0685 13.65445,-0.0685 0.55165,-1.60207 c 1.81027,-5.25718 2.24021,-5.36997 5.99788,-1.57357 l 3.01103,3.04208 0.0158,2.51122 0.0158,2.51124 -2.78925,2.72474 c -3.93753,3.84646 -3.50845,3.66995 -4.66971,1.92097 -0.5421,-0.81646 -1.19505,-2.10513 -1.451,-2.86371 l -0.46536,-1.37924 -1.07815,-0.0814 c -1.46377,-0.11045 -1.50306,-0.2663 1.72881,6.85815 1.54383,3.40329 3.19707,7.08076 3.67385,8.17217 0.47679,1.09141 1.22664,2.75828 1.66634,3.70417 1.70726,3.67262 3.22995,7.45893 3.22995,8.0315 v 0.59951 l -5.17009,1.671 c -6.05345,1.95652 -5.8943,1.97819 -3.63673,-0.49537 l 1.76542,-1.93432 -2.63086,-2.52707 c -1.44698,-1.38988 -4.06206,-3.9053 -5.81129,-5.5898 -1.74923,-1.68451 -3.91258,-3.76395 -4.80744,-4.62098 l -1.62702,-1.55823 -7.89256,7.99358 c -4.67259,4.73239 -8.19982,8.52546 -8.6457,9.29729 -0.92152,1.59519 -0.27134,1.73684 -5.57452,-1.21443 z M 64.430201,53.981863 c -1.490663,-0.27108 -4.223923,-1.53456 -5.348563,-2.47244 l -0.79375,-0.66194 3.212751,-3.24475 3.212748,-3.24475 1.946627,-0.0351 c 1.070641,-0.0193 2.125559,-0.11911 2.344261,-0.22179 0.700714,-0.32899 7.015689,6.2242 6.611019,6.8604 -1.354767,2.12988 -7.281325,3.73026 -11.185093,3.02037 z m 8.763748,-7.34671 -3.173433,-3.10652 0.175201,-0.79609 c 0.263229,-1.19606 0.27617,-2.31167 0.03477,-2.99745 -0.222623,-0.63245 5.802304,-7.19134 6.605889,-7.19134 1.25377,0 3.093146,4.68436 3.221601,8.20449 l 0.101468,2.78053 -0.693629,1.8428 c -1.923238,5.10958 -2.271374,5.17972 -6.271869,1.26358 z m 82.857481,2.60846 c -2.35493,-0.75993 -5.02708,-2.3622 -5.02708,-3.01432 0,-0.59267 6.45763,-6.55844 6.87234,-6.3489 0.22204,0.11219 1.25849,0.19376 2.30324,0.18127 l 1.89954,-0.0227 3.11522,3.12336 3.11523,3.12337 -0.59371,0.63198 c -2.17954,2.32 -8.06978,3.4925 -11.68478,2.32594 z m 9.69681,-6.87066 -3.12721,-3.13538 0.33582,-1.12087 c 0.26638,-0.8891 0.26945,-1.36904 0.0148,-2.32105 l -0.321,-1.20018 1.38333,-1.48888 c 0.76083,-0.81889 2.20856,-2.29696 3.21718,-3.2846 l 1.83384,-1.79572 0.49466,0.44766 0.49466,0.44767 -0.008,7.83034 c -0.0112,10.40858 0.19268,10.14317 -4.31769,5.62101 z m -97.538477,-4.43429 c -0.746795,-0.32677 -1.120355,-0.34764 -1.929913,-0.10781 -1.426033,0.42245 -1.571893,0.3329 -4.949254,-3.03876 -3.371842,-3.36615 -3.347767,-3.28876 -1.448199,-4.65518 4.375943,-3.14776 12.926747,-2.48717 16.017925,1.23747 0.326075,0.3929 -5.831904,7.00594 -6.499543,6.97984 -0.145737,-0.006 -0.681693,-0.19269 -1.191016,-0.41556 z m 85.923437,-7.17141 c -3.54335,-3.56317 -3.46449,-3.38644 -1.98169,-4.44121 4.41621,-3.1414 10.1799,-3.24445 14.67134,-0.2623 1.81325,1.20393 1.89755,0.98033 -1.75924,4.66566 -2.79154,2.81332 -3.22974,3.15773 -3.77031,2.9633 -0.70054,-0.25197 -2.41737,-0.24083 -3.38978,0.022 -0.58321,0.15763 -1.02923,-0.19105 -3.77032,-2.94746 z M 27.037828,30.578623 c -0.0797,-0.2077 -0.10573,-0.65419 -0.05784,-0.99219 l 0.08707,-0.61456 h 12.964583 12.964583 l 0.08733,0.76504 c 0.0496,0.43454 -0.0647,0.86142 -0.264583,0.98814 -0.671984,0.426 -25.615847,0.28432 -25.781144,-0.14643 z m 106.524022,-2.02258 c -2.68648,-0.32086 -6.80386,-2.50707 -9.47472,-5.03082 -1.24721,-1.17852 -0.88002,-1.22963 1.05595,-0.14697 0.92144,0.51529 2.80566,1.32238 4.18716,1.79352 l 2.51182,0.85662 3.43958,0.002 3.43958,0.002 2.78801,-0.9513 c 1.5334,-0.52321 3.49793,-1.36952 4.36562,-1.8807 2.61761,-1.54208 1.9854,-0.44242 -1.06808,1.85779 -3.75093,2.82553 -7.39216,3.95829 -11.24492,3.49815 z m -94.654254,-0.96146 c -0.733679,-0.14135 -0.843077,-0.5878 -0.92677,-3.78208 l -0.06585,-2.51354 -5.622396,-0.0714 -5.622396,-0.0714 v -1.71696 -1.71695 l 13.427604,0.0686 13.427604,0.0686 v 1.5875 1.5875 l -5.403625,0.0718 c -6.511581,0.0865 -6.10575,-0.1389 -6.10575,3.3909 0,3.32124 -0.31547,3.6356 -3.108417,3.09753 z m 94.566064,-3.16472 c -0.097,-0.097 -0.17639,-1.15369 -0.17639,-2.34818 0,-1.19448 -0.0744,-2.54386 -0.16537,-2.99861 l -0.16536,-0.82682 h -5.52318 -5.52318 v -1.71979 -1.7198 h 13.22917 13.22917 v 1.71453 1.71453 l -5.6224,0.0714 -5.6224,0.0714 -0.13229,2.77813 c -0.0728,1.52797 -0.22861,2.92695 -0.34634,3.10885 -0.22362,0.34552 -2.86225,0.47352 -3.18143,0.15434 z M 26.934764,16.228043 c 0,-4.88476 5.544476,-12.058501 10.010121,-12.95163 1.074999,-0.215 1.061799,0.04171 -0.09016,1.75351 -2.050589,3.04716 -3.475895,6.80649 -3.791807,10.00111 l -0.175033,1.77001 -2.976562,0.0748 -2.976562,0.0748 z m 6.614895,0.24227 c 0.0019,-2.65213 2.445374,-9.34557 4.207692,-11.525643 2.226482,-2.754267 2.439356,-2.813038 3.774485,-1.042066 2.284019,3.029617 4.070451,6.991899 4.71065,10.448159 0.512556,2.76714 0.9653,2.58257 -6.334837,2.58257 h -6.358302 l 2.64e-4,-0.46302 z m 13.758021,-0.16959 c 0,-2.9046 -2.225966,-8.796683 -4.482521,-11.865119 -1.263832,-1.718546 -0.75779,-1.81122 2.337269,-0.428032 1.633717,0.73011 5.584835,4.259151 5.584835,4.988231 0,0.15132 0.276334,0.71925 0.614072,1.26206 0.716917,1.15222 1.739394,4.28409 1.833853,5.61714 l 0.06562,0.92604 -2.976563,0.0748 -2.976562,0.0748 z m 74.78194,-2.48228 c -1.55359,-2.51377 4.88621,-11.580106 9.34198,-13.152194 1.57063,-0.554151 1.58242,-0.443768 0.19096,1.788733 -1.80754,2.900077 -3.18053,6.362991 -3.48502,8.789811 -0.0913,0.7276 -0.22731,1.65034 -0.30228,2.05052 l -0.13629,0.7276 h -2.74149 c -1.50781,0 -2.79835,-0.092 -2.86786,-0.20447 z m 6.79581,-0.21741 C 127.97114,11.218423 133.10074,0 135.10447,0 c 1.62358,0 5.76833,8.278633 6.0603,12.104683 l 0.14638,1.91823 h -6.13192 c -5.36806,0 -6.15207,-0.0525 -6.2938,-0.42188 z m 13.54647,0.0912 c -0.0601,-0.1819 -0.23487,-1.18673 -0.38849,-2.23296 -0.46998,-3.20075 -2.0111,-6.916629 -4.06659,-9.805143 -2.00707,-2.820469 3.29744,-0.433008 6.15075,2.768342 1.9862,2.228466 4.64124,8.368421 4.06564,9.402051 -0.2003,0.35969 -5.64014,0.23478 -5.76131,-0.13229 z"
       id="path248" /></g></svg>
